M48
; DRILL file {KiCad 8.0.5} date 2024-10-20T20:05:07+0200
; FORMAT={-:-/ absolute / inch / decimal}
; #@! TF.CreationDate,2024-10-20T20:05:07+02:00
; #@! TF.GenerationSoftware,Kicad,Pcbnew,8.0.5
; #@! TF.FileFunction,Plated,1,2,PTH
FMAT,2
INCH
; #@! TA.AperFunction,Plated,PTH,ViaDrill
T1C0.0118
; #@! TA.AperFunction,Plated,PTH,ComponentDrill
T2C0.0300
; #@! TA.AperFunction,Plated,PTH,ComponentDrill
T3C0.0394
%
G90
G05
T1
X4.0816Y-3.0677
T2
X2.5134Y-2.8937
X2.5134Y-3.7937
X2.5472Y-3.9567
X2.6134Y-2.8937
X2.6134Y-3.7937
X2.6472Y-3.9567
X2.7134Y-2.8937
X2.7134Y-3.7937
X2.8134Y-2.8937
X2.8134Y-3.7937
X2.9134Y-2.8937
X2.9134Y-3.7937
X3.0134Y-2.8937
X3.0134Y-3.7937
X3.1134Y-2.8937
X3.1134Y-3.7937
X3.2134Y-2.8937
X3.2134Y-3.7937
X4.0Y-3.1937
X4.0Y-3.2937
X4.0Y-3.3937
X4.0Y-3.4937
X4.0638Y-2.7331
X4.1Y-3.1937
X4.1Y-3.2937
X4.1Y-3.3937
X4.1Y-3.4937
X4.1591Y-2.7331
X4.2591Y-2.7331
X4.3591Y-2.7331
X4.4291Y-3.3728
X4.4291Y-3.6728
X4.4591Y-2.7331
X4.5591Y-2.7331
X4.5669Y-3.3744
X4.5669Y-3.6744
T3
X4.3898Y-3.9173
X4.4882Y-3.9173
M30
