%TF.GenerationSoftware,KiCad,Pcbnew,8.0.5*%
%TF.CreationDate,2024-10-20T20:04:23+02:00*%
%TF.ProjectId,weather,77656174-6865-4722-9e6b-696361645f70,rev?*%
%TF.SameCoordinates,Original*%
%TF.FileFunction,Legend,Top*%
%TF.FilePolarity,Positive*%
%FSLAX46Y46*%
G04 Gerber Fmt 4.6, Leading zero omitted, Abs format (unit mm)*
G04 Created by KiCad (PCBNEW 8.0.5) date 2024-10-20 20:04:23*
%MOMM*%
%LPD*%
G01*
G04 APERTURE LIST*
%ADD10C,0.100000*%
%ADD11C,0.150000*%
%ADD12C,0.120000*%
G04 APERTURE END LIST*
D10*
X116457419Y-89666666D02*
X115981228Y-89999999D01*
X116457419Y-90238094D02*
X115457419Y-90238094D01*
X115457419Y-90238094D02*
X115457419Y-89857142D01*
X115457419Y-89857142D02*
X115505038Y-89761904D01*
X115505038Y-89761904D02*
X115552657Y-89714285D01*
X115552657Y-89714285D02*
X115647895Y-89666666D01*
X115647895Y-89666666D02*
X115790752Y-89666666D01*
X115790752Y-89666666D02*
X115885990Y-89714285D01*
X115885990Y-89714285D02*
X115933609Y-89761904D01*
X115933609Y-89761904D02*
X115981228Y-89857142D01*
X115981228Y-89857142D02*
X115981228Y-90238094D01*
X116457419Y-88714285D02*
X116457419Y-89285713D01*
X116457419Y-88999999D02*
X115457419Y-88999999D01*
X115457419Y-88999999D02*
X115600276Y-89095237D01*
X115600276Y-89095237D02*
X115695514Y-89190475D01*
X115695514Y-89190475D02*
X115743133Y-89285713D01*
X112957419Y-89666666D02*
X112481228Y-89999999D01*
X112957419Y-90238094D02*
X111957419Y-90238094D01*
X111957419Y-90238094D02*
X111957419Y-89857142D01*
X111957419Y-89857142D02*
X112005038Y-89761904D01*
X112005038Y-89761904D02*
X112052657Y-89714285D01*
X112052657Y-89714285D02*
X112147895Y-89666666D01*
X112147895Y-89666666D02*
X112290752Y-89666666D01*
X112290752Y-89666666D02*
X112385990Y-89714285D01*
X112385990Y-89714285D02*
X112433609Y-89761904D01*
X112433609Y-89761904D02*
X112481228Y-89857142D01*
X112481228Y-89857142D02*
X112481228Y-90238094D01*
X112052657Y-89285713D02*
X112005038Y-89238094D01*
X112005038Y-89238094D02*
X111957419Y-89142856D01*
X111957419Y-89142856D02*
X111957419Y-88904761D01*
X111957419Y-88904761D02*
X112005038Y-88809523D01*
X112005038Y-88809523D02*
X112052657Y-88761904D01*
X112052657Y-88761904D02*
X112147895Y-88714285D01*
X112147895Y-88714285D02*
X112243133Y-88714285D01*
X112243133Y-88714285D02*
X112385990Y-88761904D01*
X112385990Y-88761904D02*
X112957419Y-89333332D01*
X112957419Y-89333332D02*
X112957419Y-88714285D01*
X73433609Y-88055237D02*
X73433609Y-87721904D01*
X73957419Y-87579047D02*
X73957419Y-88055237D01*
X73957419Y-88055237D02*
X72957419Y-88055237D01*
X72957419Y-88055237D02*
X72957419Y-87579047D01*
X73909800Y-87198094D02*
X73957419Y-87055237D01*
X73957419Y-87055237D02*
X73957419Y-86817142D01*
X73957419Y-86817142D02*
X73909800Y-86721904D01*
X73909800Y-86721904D02*
X73862180Y-86674285D01*
X73862180Y-86674285D02*
X73766942Y-86626666D01*
X73766942Y-86626666D02*
X73671704Y-86626666D01*
X73671704Y-86626666D02*
X73576466Y-86674285D01*
X73576466Y-86674285D02*
X73528847Y-86721904D01*
X73528847Y-86721904D02*
X73481228Y-86817142D01*
X73481228Y-86817142D02*
X73433609Y-87007618D01*
X73433609Y-87007618D02*
X73385990Y-87102856D01*
X73385990Y-87102856D02*
X73338371Y-87150475D01*
X73338371Y-87150475D02*
X73243133Y-87198094D01*
X73243133Y-87198094D02*
X73147895Y-87198094D01*
X73147895Y-87198094D02*
X73052657Y-87150475D01*
X73052657Y-87150475D02*
X73005038Y-87102856D01*
X73005038Y-87102856D02*
X72957419Y-87007618D01*
X72957419Y-87007618D02*
X72957419Y-86769523D01*
X72957419Y-86769523D02*
X73005038Y-86626666D01*
X73957419Y-86198094D02*
X72957419Y-86198094D01*
X72957419Y-86198094D02*
X72957419Y-85817142D01*
X72957419Y-85817142D02*
X73005038Y-85721904D01*
X73005038Y-85721904D02*
X73052657Y-85674285D01*
X73052657Y-85674285D02*
X73147895Y-85626666D01*
X73147895Y-85626666D02*
X73290752Y-85626666D01*
X73290752Y-85626666D02*
X73385990Y-85674285D01*
X73385990Y-85674285D02*
X73433609Y-85721904D01*
X73433609Y-85721904D02*
X73481228Y-85817142D01*
X73481228Y-85817142D02*
X73481228Y-86198094D01*
X73385990Y-85055237D02*
X73338371Y-85150475D01*
X73338371Y-85150475D02*
X73290752Y-85198094D01*
X73290752Y-85198094D02*
X73195514Y-85245713D01*
X73195514Y-85245713D02*
X73147895Y-85245713D01*
X73147895Y-85245713D02*
X73052657Y-85198094D01*
X73052657Y-85198094D02*
X73005038Y-85150475D01*
X73005038Y-85150475D02*
X72957419Y-85055237D01*
X72957419Y-85055237D02*
X72957419Y-84864761D01*
X72957419Y-84864761D02*
X73005038Y-84769523D01*
X73005038Y-84769523D02*
X73052657Y-84721904D01*
X73052657Y-84721904D02*
X73147895Y-84674285D01*
X73147895Y-84674285D02*
X73195514Y-84674285D01*
X73195514Y-84674285D02*
X73290752Y-84721904D01*
X73290752Y-84721904D02*
X73338371Y-84769523D01*
X73338371Y-84769523D02*
X73385990Y-84864761D01*
X73385990Y-84864761D02*
X73385990Y-85055237D01*
X73385990Y-85055237D02*
X73433609Y-85150475D01*
X73433609Y-85150475D02*
X73481228Y-85198094D01*
X73481228Y-85198094D02*
X73576466Y-85245713D01*
X73576466Y-85245713D02*
X73766942Y-85245713D01*
X73766942Y-85245713D02*
X73862180Y-85198094D01*
X73862180Y-85198094D02*
X73909800Y-85150475D01*
X73909800Y-85150475D02*
X73957419Y-85055237D01*
X73957419Y-85055237D02*
X73957419Y-84864761D01*
X73957419Y-84864761D02*
X73909800Y-84769523D01*
X73909800Y-84769523D02*
X73862180Y-84721904D01*
X73862180Y-84721904D02*
X73766942Y-84674285D01*
X73766942Y-84674285D02*
X73576466Y-84674285D01*
X73576466Y-84674285D02*
X73481228Y-84721904D01*
X73481228Y-84721904D02*
X73433609Y-84769523D01*
X73433609Y-84769523D02*
X73385990Y-84864761D01*
X73052657Y-84293332D02*
X73005038Y-84245713D01*
X73005038Y-84245713D02*
X72957419Y-84150475D01*
X72957419Y-84150475D02*
X72957419Y-83912380D01*
X72957419Y-83912380D02*
X73005038Y-83817142D01*
X73005038Y-83817142D02*
X73052657Y-83769523D01*
X73052657Y-83769523D02*
X73147895Y-83721904D01*
X73147895Y-83721904D02*
X73243133Y-83721904D01*
X73243133Y-83721904D02*
X73385990Y-83769523D01*
X73385990Y-83769523D02*
X73957419Y-84340951D01*
X73957419Y-84340951D02*
X73957419Y-83721904D01*
X72957419Y-82864761D02*
X72957419Y-83055237D01*
X72957419Y-83055237D02*
X73005038Y-83150475D01*
X73005038Y-83150475D02*
X73052657Y-83198094D01*
X73052657Y-83198094D02*
X73195514Y-83293332D01*
X73195514Y-83293332D02*
X73385990Y-83340951D01*
X73385990Y-83340951D02*
X73766942Y-83340951D01*
X73766942Y-83340951D02*
X73862180Y-83293332D01*
X73862180Y-83293332D02*
X73909800Y-83245713D01*
X73909800Y-83245713D02*
X73957419Y-83150475D01*
X73957419Y-83150475D02*
X73957419Y-82959999D01*
X73957419Y-82959999D02*
X73909800Y-82864761D01*
X73909800Y-82864761D02*
X73862180Y-82817142D01*
X73862180Y-82817142D02*
X73766942Y-82769523D01*
X73766942Y-82769523D02*
X73528847Y-82769523D01*
X73528847Y-82769523D02*
X73433609Y-82817142D01*
X73433609Y-82817142D02*
X73385990Y-82864761D01*
X73385990Y-82864761D02*
X73338371Y-82959999D01*
X73338371Y-82959999D02*
X73338371Y-83150475D01*
X73338371Y-83150475D02*
X73385990Y-83245713D01*
X73385990Y-83245713D02*
X73433609Y-83293332D01*
X73433609Y-83293332D02*
X73528847Y-83340951D01*
X72957419Y-81912380D02*
X72957419Y-82102856D01*
X72957419Y-82102856D02*
X73005038Y-82198094D01*
X73005038Y-82198094D02*
X73052657Y-82245713D01*
X73052657Y-82245713D02*
X73195514Y-82340951D01*
X73195514Y-82340951D02*
X73385990Y-82388570D01*
X73385990Y-82388570D02*
X73766942Y-82388570D01*
X73766942Y-82388570D02*
X73862180Y-82340951D01*
X73862180Y-82340951D02*
X73909800Y-82293332D01*
X73909800Y-82293332D02*
X73957419Y-82198094D01*
X73957419Y-82198094D02*
X73957419Y-82007618D01*
X73957419Y-82007618D02*
X73909800Y-81912380D01*
X73909800Y-81912380D02*
X73862180Y-81864761D01*
X73862180Y-81864761D02*
X73766942Y-81817142D01*
X73766942Y-81817142D02*
X73528847Y-81817142D01*
X73528847Y-81817142D02*
X73433609Y-81864761D01*
X73433609Y-81864761D02*
X73385990Y-81912380D01*
X73385990Y-81912380D02*
X73338371Y-82007618D01*
X73338371Y-82007618D02*
X73338371Y-82198094D01*
X73338371Y-82198094D02*
X73385990Y-82293332D01*
X73385990Y-82293332D02*
X73433609Y-82340951D01*
X73433609Y-82340951D02*
X73528847Y-82388570D01*
X58472419Y-86351353D02*
X59472419Y-86113258D01*
X59472419Y-86113258D02*
X58758133Y-85922782D01*
X58758133Y-85922782D02*
X59472419Y-85732306D01*
X59472419Y-85732306D02*
X58472419Y-85494211D01*
X59472419Y-85113258D02*
X58805752Y-85113258D01*
X58472419Y-85113258D02*
X58520038Y-85160877D01*
X58520038Y-85160877D02*
X58567657Y-85113258D01*
X58567657Y-85113258D02*
X58520038Y-85065639D01*
X58520038Y-85065639D02*
X58472419Y-85113258D01*
X58472419Y-85113258D02*
X58567657Y-85113258D01*
X58948609Y-84303735D02*
X58948609Y-84637068D01*
X59472419Y-84637068D02*
X58472419Y-84637068D01*
X58472419Y-84637068D02*
X58472419Y-84160878D01*
X59472419Y-83779925D02*
X58805752Y-83779925D01*
X58472419Y-83779925D02*
X58520038Y-83827544D01*
X58520038Y-83827544D02*
X58567657Y-83779925D01*
X58567657Y-83779925D02*
X58520038Y-83732306D01*
X58520038Y-83732306D02*
X58472419Y-83779925D01*
X58472419Y-83779925D02*
X58567657Y-83779925D01*
X87072419Y-86256115D02*
X87881942Y-86256115D01*
X87881942Y-86256115D02*
X87977180Y-86208496D01*
X87977180Y-86208496D02*
X88024800Y-86160877D01*
X88024800Y-86160877D02*
X88072419Y-86065639D01*
X88072419Y-86065639D02*
X88072419Y-85875163D01*
X88072419Y-85875163D02*
X88024800Y-85779925D01*
X88024800Y-85779925D02*
X87977180Y-85732306D01*
X87977180Y-85732306D02*
X87881942Y-85684687D01*
X87881942Y-85684687D02*
X87072419Y-85684687D01*
X88024800Y-85256115D02*
X88072419Y-85113258D01*
X88072419Y-85113258D02*
X88072419Y-84875163D01*
X88072419Y-84875163D02*
X88024800Y-84779925D01*
X88024800Y-84779925D02*
X87977180Y-84732306D01*
X87977180Y-84732306D02*
X87881942Y-84684687D01*
X87881942Y-84684687D02*
X87786704Y-84684687D01*
X87786704Y-84684687D02*
X87691466Y-84732306D01*
X87691466Y-84732306D02*
X87643847Y-84779925D01*
X87643847Y-84779925D02*
X87596228Y-84875163D01*
X87596228Y-84875163D02*
X87548609Y-85065639D01*
X87548609Y-85065639D02*
X87500990Y-85160877D01*
X87500990Y-85160877D02*
X87453371Y-85208496D01*
X87453371Y-85208496D02*
X87358133Y-85256115D01*
X87358133Y-85256115D02*
X87262895Y-85256115D01*
X87262895Y-85256115D02*
X87167657Y-85208496D01*
X87167657Y-85208496D02*
X87120038Y-85160877D01*
X87120038Y-85160877D02*
X87072419Y-85065639D01*
X87072419Y-85065639D02*
X87072419Y-84827544D01*
X87072419Y-84827544D02*
X87120038Y-84684687D01*
X87548609Y-83922782D02*
X87596228Y-83779925D01*
X87596228Y-83779925D02*
X87643847Y-83732306D01*
X87643847Y-83732306D02*
X87739085Y-83684687D01*
X87739085Y-83684687D02*
X87881942Y-83684687D01*
X87881942Y-83684687D02*
X87977180Y-83732306D01*
X87977180Y-83732306D02*
X88024800Y-83779925D01*
X88024800Y-83779925D02*
X88072419Y-83875163D01*
X88072419Y-83875163D02*
X88072419Y-84256115D01*
X88072419Y-84256115D02*
X87072419Y-84256115D01*
X87072419Y-84256115D02*
X87072419Y-83922782D01*
X87072419Y-83922782D02*
X87120038Y-83827544D01*
X87120038Y-83827544D02*
X87167657Y-83779925D01*
X87167657Y-83779925D02*
X87262895Y-83732306D01*
X87262895Y-83732306D02*
X87358133Y-83732306D01*
X87358133Y-83732306D02*
X87453371Y-83779925D01*
X87453371Y-83779925D02*
X87500990Y-83827544D01*
X87500990Y-83827544D02*
X87548609Y-83922782D01*
X87548609Y-83922782D02*
X87548609Y-84256115D01*
X107119047Y-74933609D02*
X107261904Y-74981228D01*
X107261904Y-74981228D02*
X107309523Y-75028847D01*
X107309523Y-75028847D02*
X107357142Y-75124085D01*
X107357142Y-75124085D02*
X107357142Y-75266942D01*
X107357142Y-75266942D02*
X107309523Y-75362180D01*
X107309523Y-75362180D02*
X107261904Y-75409800D01*
X107261904Y-75409800D02*
X107166666Y-75457419D01*
X107166666Y-75457419D02*
X106785714Y-75457419D01*
X106785714Y-75457419D02*
X106785714Y-74457419D01*
X106785714Y-74457419D02*
X107119047Y-74457419D01*
X107119047Y-74457419D02*
X107214285Y-74505038D01*
X107214285Y-74505038D02*
X107261904Y-74552657D01*
X107261904Y-74552657D02*
X107309523Y-74647895D01*
X107309523Y-74647895D02*
X107309523Y-74743133D01*
X107309523Y-74743133D02*
X107261904Y-74838371D01*
X107261904Y-74838371D02*
X107214285Y-74885990D01*
X107214285Y-74885990D02*
X107119047Y-74933609D01*
X107119047Y-74933609D02*
X106785714Y-74933609D01*
X107785714Y-75457419D02*
X107785714Y-74457419D01*
X107785714Y-74457419D02*
X108119047Y-75171704D01*
X108119047Y-75171704D02*
X108452380Y-74457419D01*
X108452380Y-74457419D02*
X108452380Y-75457419D01*
X108928571Y-74933609D02*
X109261904Y-74933609D01*
X109404761Y-75457419D02*
X108928571Y-75457419D01*
X108928571Y-75457419D02*
X108928571Y-74457419D01*
X108928571Y-74457419D02*
X109404761Y-74457419D01*
X109785714Y-74552657D02*
X109833333Y-74505038D01*
X109833333Y-74505038D02*
X109928571Y-74457419D01*
X109928571Y-74457419D02*
X110166666Y-74457419D01*
X110166666Y-74457419D02*
X110261904Y-74505038D01*
X110261904Y-74505038D02*
X110309523Y-74552657D01*
X110309523Y-74552657D02*
X110357142Y-74647895D01*
X110357142Y-74647895D02*
X110357142Y-74743133D01*
X110357142Y-74743133D02*
X110309523Y-74885990D01*
X110309523Y-74885990D02*
X109738095Y-75457419D01*
X109738095Y-75457419D02*
X110357142Y-75457419D01*
X110928571Y-74885990D02*
X110833333Y-74838371D01*
X110833333Y-74838371D02*
X110785714Y-74790752D01*
X110785714Y-74790752D02*
X110738095Y-74695514D01*
X110738095Y-74695514D02*
X110738095Y-74647895D01*
X110738095Y-74647895D02*
X110785714Y-74552657D01*
X110785714Y-74552657D02*
X110833333Y-74505038D01*
X110833333Y-74505038D02*
X110928571Y-74457419D01*
X110928571Y-74457419D02*
X111119047Y-74457419D01*
X111119047Y-74457419D02*
X111214285Y-74505038D01*
X111214285Y-74505038D02*
X111261904Y-74552657D01*
X111261904Y-74552657D02*
X111309523Y-74647895D01*
X111309523Y-74647895D02*
X111309523Y-74695514D01*
X111309523Y-74695514D02*
X111261904Y-74790752D01*
X111261904Y-74790752D02*
X111214285Y-74838371D01*
X111214285Y-74838371D02*
X111119047Y-74885990D01*
X111119047Y-74885990D02*
X110928571Y-74885990D01*
X110928571Y-74885990D02*
X110833333Y-74933609D01*
X110833333Y-74933609D02*
X110785714Y-74981228D01*
X110785714Y-74981228D02*
X110738095Y-75076466D01*
X110738095Y-75076466D02*
X110738095Y-75266942D01*
X110738095Y-75266942D02*
X110785714Y-75362180D01*
X110785714Y-75362180D02*
X110833333Y-75409800D01*
X110833333Y-75409800D02*
X110928571Y-75457419D01*
X110928571Y-75457419D02*
X111119047Y-75457419D01*
X111119047Y-75457419D02*
X111214285Y-75409800D01*
X111214285Y-75409800D02*
X111261904Y-75362180D01*
X111261904Y-75362180D02*
X111309523Y-75266942D01*
X111309523Y-75266942D02*
X111309523Y-75076466D01*
X111309523Y-75076466D02*
X111261904Y-74981228D01*
X111261904Y-74981228D02*
X111214285Y-74933609D01*
X111214285Y-74933609D02*
X111119047Y-74885990D01*
X111928571Y-74457419D02*
X112023809Y-74457419D01*
X112023809Y-74457419D02*
X112119047Y-74505038D01*
X112119047Y-74505038D02*
X112166666Y-74552657D01*
X112166666Y-74552657D02*
X112214285Y-74647895D01*
X112214285Y-74647895D02*
X112261904Y-74838371D01*
X112261904Y-74838371D02*
X112261904Y-75076466D01*
X112261904Y-75076466D02*
X112214285Y-75266942D01*
X112214285Y-75266942D02*
X112166666Y-75362180D01*
X112166666Y-75362180D02*
X112119047Y-75409800D01*
X112119047Y-75409800D02*
X112023809Y-75457419D01*
X112023809Y-75457419D02*
X111928571Y-75457419D01*
X111928571Y-75457419D02*
X111833333Y-75409800D01*
X111833333Y-75409800D02*
X111785714Y-75362180D01*
X111785714Y-75362180D02*
X111738095Y-75266942D01*
X111738095Y-75266942D02*
X111690476Y-75076466D01*
X111690476Y-75076466D02*
X111690476Y-74838371D01*
X111690476Y-74838371D02*
X111738095Y-74647895D01*
X111738095Y-74647895D02*
X111785714Y-74552657D01*
X111785714Y-74552657D02*
X111833333Y-74505038D01*
X111833333Y-74505038D02*
X111928571Y-74457419D01*
X107811200Y-71028169D02*
X107773104Y-71142455D01*
X107773104Y-71142455D02*
X107773104Y-71332931D01*
X107773104Y-71332931D02*
X107811200Y-71409122D01*
X107811200Y-71409122D02*
X107849295Y-71447217D01*
X107849295Y-71447217D02*
X107925485Y-71485312D01*
X107925485Y-71485312D02*
X108001676Y-71485312D01*
X108001676Y-71485312D02*
X108077866Y-71447217D01*
X108077866Y-71447217D02*
X108115961Y-71409122D01*
X108115961Y-71409122D02*
X108154057Y-71332931D01*
X108154057Y-71332931D02*
X108192152Y-71180550D01*
X108192152Y-71180550D02*
X108230247Y-71104360D01*
X108230247Y-71104360D02*
X108268342Y-71066265D01*
X108268342Y-71066265D02*
X108344533Y-71028169D01*
X108344533Y-71028169D02*
X108420723Y-71028169D01*
X108420723Y-71028169D02*
X108496914Y-71066265D01*
X108496914Y-71066265D02*
X108535009Y-71104360D01*
X108535009Y-71104360D02*
X108573104Y-71180550D01*
X108573104Y-71180550D02*
X108573104Y-71371027D01*
X108573104Y-71371027D02*
X108535009Y-71485312D01*
X107773104Y-71828170D02*
X108573104Y-71828170D01*
X108573104Y-71828170D02*
X108573104Y-72018646D01*
X108573104Y-72018646D02*
X108535009Y-72132932D01*
X108535009Y-72132932D02*
X108458819Y-72209122D01*
X108458819Y-72209122D02*
X108382628Y-72247217D01*
X108382628Y-72247217D02*
X108230247Y-72285313D01*
X108230247Y-72285313D02*
X108115961Y-72285313D01*
X108115961Y-72285313D02*
X107963580Y-72247217D01*
X107963580Y-72247217D02*
X107887390Y-72209122D01*
X107887390Y-72209122D02*
X107811200Y-72132932D01*
X107811200Y-72132932D02*
X107773104Y-72018646D01*
X107773104Y-72018646D02*
X107773104Y-71828170D01*
X108001676Y-72590074D02*
X108001676Y-72971027D01*
X107773104Y-72513884D02*
X108573104Y-72780551D01*
X108573104Y-72780551D02*
X107773104Y-73047217D01*
X116253104Y-70951979D02*
X115453104Y-71218646D01*
X115453104Y-71218646D02*
X116253104Y-71485312D01*
X115529295Y-72209122D02*
X115491200Y-72171026D01*
X115491200Y-72171026D02*
X115453104Y-72056741D01*
X115453104Y-72056741D02*
X115453104Y-71980550D01*
X115453104Y-71980550D02*
X115491200Y-71866264D01*
X115491200Y-71866264D02*
X115567390Y-71790074D01*
X115567390Y-71790074D02*
X115643580Y-71751979D01*
X115643580Y-71751979D02*
X115795961Y-71713883D01*
X115795961Y-71713883D02*
X115910247Y-71713883D01*
X115910247Y-71713883D02*
X116062628Y-71751979D01*
X116062628Y-71751979D02*
X116138819Y-71790074D01*
X116138819Y-71790074D02*
X116215009Y-71866264D01*
X116215009Y-71866264D02*
X116253104Y-71980550D01*
X116253104Y-71980550D02*
X116253104Y-72056741D01*
X116253104Y-72056741D02*
X116215009Y-72171026D01*
X116215009Y-72171026D02*
X116176914Y-72209122D01*
X115529295Y-73009122D02*
X115491200Y-72971026D01*
X115491200Y-72971026D02*
X115453104Y-72856741D01*
X115453104Y-72856741D02*
X115453104Y-72780550D01*
X115453104Y-72780550D02*
X115491200Y-72666264D01*
X115491200Y-72666264D02*
X115567390Y-72590074D01*
X115567390Y-72590074D02*
X115643580Y-72551979D01*
X115643580Y-72551979D02*
X115795961Y-72513883D01*
X115795961Y-72513883D02*
X115910247Y-72513883D01*
X115910247Y-72513883D02*
X116062628Y-72551979D01*
X116062628Y-72551979D02*
X116138819Y-72590074D01*
X116138819Y-72590074D02*
X116215009Y-72666264D01*
X116215009Y-72666264D02*
X116253104Y-72780550D01*
X116253104Y-72780550D02*
X116253104Y-72856741D01*
X116253104Y-72856741D02*
X116215009Y-72971026D01*
X116215009Y-72971026D02*
X116176914Y-73009122D01*
X113655009Y-71485312D02*
X113693104Y-71409122D01*
X113693104Y-71409122D02*
X113693104Y-71294836D01*
X113693104Y-71294836D02*
X113655009Y-71180550D01*
X113655009Y-71180550D02*
X113578819Y-71104360D01*
X113578819Y-71104360D02*
X113502628Y-71066265D01*
X113502628Y-71066265D02*
X113350247Y-71028169D01*
X113350247Y-71028169D02*
X113235961Y-71028169D01*
X113235961Y-71028169D02*
X113083580Y-71066265D01*
X113083580Y-71066265D02*
X113007390Y-71104360D01*
X113007390Y-71104360D02*
X112931200Y-71180550D01*
X112931200Y-71180550D02*
X112893104Y-71294836D01*
X112893104Y-71294836D02*
X112893104Y-71371027D01*
X112893104Y-71371027D02*
X112931200Y-71485312D01*
X112931200Y-71485312D02*
X112969295Y-71523408D01*
X112969295Y-71523408D02*
X113235961Y-71523408D01*
X113235961Y-71523408D02*
X113235961Y-71371027D01*
X112893104Y-71866265D02*
X113693104Y-71866265D01*
X113693104Y-71866265D02*
X112893104Y-72323408D01*
X112893104Y-72323408D02*
X113693104Y-72323408D01*
X112893104Y-72704360D02*
X113693104Y-72704360D01*
X113693104Y-72704360D02*
X113693104Y-72894836D01*
X113693104Y-72894836D02*
X113655009Y-73009122D01*
X113655009Y-73009122D02*
X113578819Y-73085312D01*
X113578819Y-73085312D02*
X113502628Y-73123407D01*
X113502628Y-73123407D02*
X113350247Y-73161503D01*
X113350247Y-73161503D02*
X113235961Y-73161503D01*
X113235961Y-73161503D02*
X113083580Y-73123407D01*
X113083580Y-73123407D02*
X113007390Y-73085312D01*
X113007390Y-73085312D02*
X112931200Y-73009122D01*
X112931200Y-73009122D02*
X112893104Y-72894836D01*
X112893104Y-72894836D02*
X112893104Y-72704360D01*
X102751200Y-71028169D02*
X102713104Y-71142455D01*
X102713104Y-71142455D02*
X102713104Y-71332931D01*
X102713104Y-71332931D02*
X102751200Y-71409122D01*
X102751200Y-71409122D02*
X102789295Y-71447217D01*
X102789295Y-71447217D02*
X102865485Y-71485312D01*
X102865485Y-71485312D02*
X102941676Y-71485312D01*
X102941676Y-71485312D02*
X103017866Y-71447217D01*
X103017866Y-71447217D02*
X103055961Y-71409122D01*
X103055961Y-71409122D02*
X103094057Y-71332931D01*
X103094057Y-71332931D02*
X103132152Y-71180550D01*
X103132152Y-71180550D02*
X103170247Y-71104360D01*
X103170247Y-71104360D02*
X103208342Y-71066265D01*
X103208342Y-71066265D02*
X103284533Y-71028169D01*
X103284533Y-71028169D02*
X103360723Y-71028169D01*
X103360723Y-71028169D02*
X103436914Y-71066265D01*
X103436914Y-71066265D02*
X103475009Y-71104360D01*
X103475009Y-71104360D02*
X103513104Y-71180550D01*
X103513104Y-71180550D02*
X103513104Y-71371027D01*
X103513104Y-71371027D02*
X103475009Y-71485312D01*
X102713104Y-71828170D02*
X103513104Y-71828170D01*
X103513104Y-71828170D02*
X103513104Y-72018646D01*
X103513104Y-72018646D02*
X103475009Y-72132932D01*
X103475009Y-72132932D02*
X103398819Y-72209122D01*
X103398819Y-72209122D02*
X103322628Y-72247217D01*
X103322628Y-72247217D02*
X103170247Y-72285313D01*
X103170247Y-72285313D02*
X103055961Y-72285313D01*
X103055961Y-72285313D02*
X102903580Y-72247217D01*
X102903580Y-72247217D02*
X102827390Y-72209122D01*
X102827390Y-72209122D02*
X102751200Y-72132932D01*
X102751200Y-72132932D02*
X102713104Y-72018646D01*
X102713104Y-72018646D02*
X102713104Y-71828170D01*
X103513104Y-72780551D02*
X103513104Y-72932932D01*
X103513104Y-72932932D02*
X103475009Y-73009122D01*
X103475009Y-73009122D02*
X103398819Y-73085313D01*
X103398819Y-73085313D02*
X103246438Y-73123408D01*
X103246438Y-73123408D02*
X102979771Y-73123408D01*
X102979771Y-73123408D02*
X102827390Y-73085313D01*
X102827390Y-73085313D02*
X102751200Y-73009122D01*
X102751200Y-73009122D02*
X102713104Y-72932932D01*
X102713104Y-72932932D02*
X102713104Y-72780551D01*
X102713104Y-72780551D02*
X102751200Y-72704360D01*
X102751200Y-72704360D02*
X102827390Y-72628170D01*
X102827390Y-72628170D02*
X102979771Y-72590074D01*
X102979771Y-72590074D02*
X103246438Y-72590074D01*
X103246438Y-72590074D02*
X103398819Y-72628170D01*
X103398819Y-72628170D02*
X103475009Y-72704360D01*
X103475009Y-72704360D02*
X103513104Y-72780551D01*
X110321200Y-71028169D02*
X110283104Y-71142455D01*
X110283104Y-71142455D02*
X110283104Y-71332931D01*
X110283104Y-71332931D02*
X110321200Y-71409122D01*
X110321200Y-71409122D02*
X110359295Y-71447217D01*
X110359295Y-71447217D02*
X110435485Y-71485312D01*
X110435485Y-71485312D02*
X110511676Y-71485312D01*
X110511676Y-71485312D02*
X110587866Y-71447217D01*
X110587866Y-71447217D02*
X110625961Y-71409122D01*
X110625961Y-71409122D02*
X110664057Y-71332931D01*
X110664057Y-71332931D02*
X110702152Y-71180550D01*
X110702152Y-71180550D02*
X110740247Y-71104360D01*
X110740247Y-71104360D02*
X110778342Y-71066265D01*
X110778342Y-71066265D02*
X110854533Y-71028169D01*
X110854533Y-71028169D02*
X110930723Y-71028169D01*
X110930723Y-71028169D02*
X111006914Y-71066265D01*
X111006914Y-71066265D02*
X111045009Y-71104360D01*
X111045009Y-71104360D02*
X111083104Y-71180550D01*
X111083104Y-71180550D02*
X111083104Y-71371027D01*
X111083104Y-71371027D02*
X111045009Y-71485312D01*
X110359295Y-72285313D02*
X110321200Y-72247217D01*
X110321200Y-72247217D02*
X110283104Y-72132932D01*
X110283104Y-72132932D02*
X110283104Y-72056741D01*
X110283104Y-72056741D02*
X110321200Y-71942455D01*
X110321200Y-71942455D02*
X110397390Y-71866265D01*
X110397390Y-71866265D02*
X110473580Y-71828170D01*
X110473580Y-71828170D02*
X110625961Y-71790074D01*
X110625961Y-71790074D02*
X110740247Y-71790074D01*
X110740247Y-71790074D02*
X110892628Y-71828170D01*
X110892628Y-71828170D02*
X110968819Y-71866265D01*
X110968819Y-71866265D02*
X111045009Y-71942455D01*
X111045009Y-71942455D02*
X111083104Y-72056741D01*
X111083104Y-72056741D02*
X111083104Y-72132932D01*
X111083104Y-72132932D02*
X111045009Y-72247217D01*
X111045009Y-72247217D02*
X111006914Y-72285313D01*
X110283104Y-73009122D02*
X110283104Y-72628170D01*
X110283104Y-72628170D02*
X111083104Y-72628170D01*
X105289295Y-71523408D02*
X105251200Y-71485312D01*
X105251200Y-71485312D02*
X105213104Y-71371027D01*
X105213104Y-71371027D02*
X105213104Y-71294836D01*
X105213104Y-71294836D02*
X105251200Y-71180550D01*
X105251200Y-71180550D02*
X105327390Y-71104360D01*
X105327390Y-71104360D02*
X105403580Y-71066265D01*
X105403580Y-71066265D02*
X105555961Y-71028169D01*
X105555961Y-71028169D02*
X105670247Y-71028169D01*
X105670247Y-71028169D02*
X105822628Y-71066265D01*
X105822628Y-71066265D02*
X105898819Y-71104360D01*
X105898819Y-71104360D02*
X105975009Y-71180550D01*
X105975009Y-71180550D02*
X106013104Y-71294836D01*
X106013104Y-71294836D02*
X106013104Y-71371027D01*
X106013104Y-71371027D02*
X105975009Y-71485312D01*
X105975009Y-71485312D02*
X105936914Y-71523408D01*
X105251200Y-71828169D02*
X105213104Y-71942455D01*
X105213104Y-71942455D02*
X105213104Y-72132931D01*
X105213104Y-72132931D02*
X105251200Y-72209122D01*
X105251200Y-72209122D02*
X105289295Y-72247217D01*
X105289295Y-72247217D02*
X105365485Y-72285312D01*
X105365485Y-72285312D02*
X105441676Y-72285312D01*
X105441676Y-72285312D02*
X105517866Y-72247217D01*
X105517866Y-72247217D02*
X105555961Y-72209122D01*
X105555961Y-72209122D02*
X105594057Y-72132931D01*
X105594057Y-72132931D02*
X105632152Y-71980550D01*
X105632152Y-71980550D02*
X105670247Y-71904360D01*
X105670247Y-71904360D02*
X105708342Y-71866265D01*
X105708342Y-71866265D02*
X105784533Y-71828169D01*
X105784533Y-71828169D02*
X105860723Y-71828169D01*
X105860723Y-71828169D02*
X105936914Y-71866265D01*
X105936914Y-71866265D02*
X105975009Y-71904360D01*
X105975009Y-71904360D02*
X106013104Y-71980550D01*
X106013104Y-71980550D02*
X106013104Y-72171027D01*
X106013104Y-72171027D02*
X105975009Y-72285312D01*
X105632152Y-72894836D02*
X105594057Y-73009122D01*
X105594057Y-73009122D02*
X105555961Y-73047217D01*
X105555961Y-73047217D02*
X105479771Y-73085313D01*
X105479771Y-73085313D02*
X105365485Y-73085313D01*
X105365485Y-73085313D02*
X105289295Y-73047217D01*
X105289295Y-73047217D02*
X105251200Y-73009122D01*
X105251200Y-73009122D02*
X105213104Y-72932932D01*
X105213104Y-72932932D02*
X105213104Y-72628170D01*
X105213104Y-72628170D02*
X106013104Y-72628170D01*
X106013104Y-72628170D02*
X106013104Y-72894836D01*
X106013104Y-72894836D02*
X105975009Y-72971027D01*
X105975009Y-72971027D02*
X105936914Y-73009122D01*
X105936914Y-73009122D02*
X105860723Y-73047217D01*
X105860723Y-73047217D02*
X105784533Y-73047217D01*
X105784533Y-73047217D02*
X105708342Y-73009122D01*
X105708342Y-73009122D02*
X105670247Y-72971027D01*
X105670247Y-72971027D02*
X105632152Y-72894836D01*
X105632152Y-72894836D02*
X105632152Y-72628170D01*
D11*
X109464285Y-96073866D02*
X110226190Y-96073866D01*
X115273810Y-96073866D02*
X116035715Y-96073866D01*
X115654762Y-96454819D02*
X115654762Y-95692914D01*
D10*
X64766666Y-98157419D02*
X64766666Y-98871704D01*
X64766666Y-98871704D02*
X64719047Y-99014561D01*
X64719047Y-99014561D02*
X64623809Y-99109800D01*
X64623809Y-99109800D02*
X64480952Y-99157419D01*
X64480952Y-99157419D02*
X64385714Y-99157419D01*
X65242857Y-99157419D02*
X65242857Y-98157419D01*
X65242857Y-98157419D02*
X65623809Y-98157419D01*
X65623809Y-98157419D02*
X65719047Y-98205038D01*
X65719047Y-98205038D02*
X65766666Y-98252657D01*
X65766666Y-98252657D02*
X65814285Y-98347895D01*
X65814285Y-98347895D02*
X65814285Y-98490752D01*
X65814285Y-98490752D02*
X65766666Y-98585990D01*
X65766666Y-98585990D02*
X65719047Y-98633609D01*
X65719047Y-98633609D02*
X65623809Y-98681228D01*
X65623809Y-98681228D02*
X65242857Y-98681228D01*
X66766666Y-99157419D02*
X66195238Y-99157419D01*
X66480952Y-99157419D02*
X66480952Y-98157419D01*
X66480952Y-98157419D02*
X66385714Y-98300276D01*
X66385714Y-98300276D02*
X66290476Y-98395514D01*
X66290476Y-98395514D02*
X66195238Y-98443133D01*
%TO.C,R1*%
X117050000Y-94400000D02*
X114950000Y-94400000D01*
X114950000Y-84600000D01*
X117050000Y-84600000D01*
X117050000Y-94400000D01*
%TO.C,R2*%
X111450000Y-84600000D02*
X113550000Y-84600000D01*
X113550000Y-94400000D01*
X111450000Y-94400000D01*
X111450000Y-84600000D01*
%TO.C,ESP8266*%
X62000000Y-97460000D02*
X62000000Y-72460000D01*
X83000000Y-97460000D02*
X84600000Y-95360000D01*
X84600000Y-95360000D02*
X90600000Y-95360000D01*
X56550000Y-97510000D02*
X90650000Y-97510000D01*
X90650000Y-72410000D01*
X56550000Y-72410000D01*
X56550000Y-97510000D01*
X84650000Y-89010000D02*
X90650000Y-89010000D01*
X90650000Y-81010000D01*
X84650000Y-81010000D01*
X84650000Y-89010000D01*
X59600000Y-74460000D02*
G75*
G02*
X57600000Y-74460000I-1000000J0D01*
G01*
X57600000Y-74460000D02*
G75*
G02*
X59600000Y-74460000I1000000J0D01*
G01*
X59600000Y-95560000D02*
G75*
G02*
X57600000Y-95560000I-1000000J0D01*
G01*
X57600000Y-95560000D02*
G75*
G02*
X59600000Y-95560000I1000000J0D01*
G01*
%TO.C,BME280*%
X101950000Y-68450000D02*
X117050000Y-68450000D01*
X117050000Y-79550000D01*
X101950000Y-79550000D01*
X101950000Y-68450000D01*
X105597416Y-77240000D02*
G75*
G02*
X102542584Y-77240000I-1527416J0D01*
G01*
X102542584Y-77240000D02*
G75*
G02*
X105597416Y-77240000I1527416J0D01*
G01*
X116587416Y-77240000D02*
G75*
G02*
X113532584Y-77240000I-1527416J0D01*
G01*
X113532584Y-77240000D02*
G75*
G02*
X116587416Y-77240000I1527416J0D01*
G01*
D12*
%TO.C,-      +*%
X108890000Y-97190000D02*
X108890000Y-101210000D01*
X108890000Y-98690000D02*
X109890000Y-98690000D01*
X108890000Y-101210000D02*
X116610000Y-101210000D01*
X109390000Y-99500000D02*
X108890000Y-99500000D01*
X109390000Y-100710000D02*
X109390000Y-99500000D01*
X109890000Y-98690000D02*
X109890000Y-97190000D01*
X115610000Y-98690000D02*
X115610000Y-97190000D01*
X116110000Y-99500000D02*
X116110000Y-100710000D01*
X116110000Y-100710000D02*
X109390000Y-100710000D01*
X116610000Y-97190000D02*
X108890000Y-97190000D01*
X116610000Y-98690000D02*
X115610000Y-98690000D01*
X116610000Y-99500000D02*
X116110000Y-99500000D01*
X116610000Y-101210000D02*
X116610000Y-97190000D01*
X116910000Y-96890000D02*
X114410000Y-96890000D01*
X116910000Y-99390000D02*
X116910000Y-96890000D01*
%TO.C,JP1*%
D10*
X68350000Y-99450000D02*
X63650000Y-99450000D01*
X63650000Y-101550000D01*
X68350000Y-101550000D01*
X68350000Y-99450000D01*
%TD*%
M02*
