%TF.GenerationSoftware,KiCad,Pcbnew,8.0.5*%
%TF.CreationDate,2024-10-20T20:04:23+02:00*%
%TF.ProjectId,weather,77656174-6865-4722-9e6b-696361645f70,rev?*%
%TF.SameCoordinates,Original*%
%TF.FileFunction,Copper,L2,Bot*%
%TF.FilePolarity,Positive*%
%FSLAX46Y46*%
G04 Gerber Fmt 4.6, Leading zero omitted, Abs format (unit mm)*
G04 Created by KiCad (PCBNEW 8.0.5) date 2024-10-20 20:04:23*
%MOMM*%
%LPD*%
G01*
G04 APERTURE LIST*
G04 Aperture macros list*
%AMRoundRect*
0 Rectangle with rounded corners*
0 $1 Rounding radius*
0 $2 $3 $4 $5 $6 $7 $8 $9 X,Y pos of 4 corners*
0 Add a 4 corners polygon primitive as box body*
4,1,4,$2,$3,$4,$5,$6,$7,$8,$9,$2,$3,0*
0 Add four circle primitives for the rounded corners*
1,1,$1+$1,$2,$3*
1,1,$1+$1,$4,$5*
1,1,$1+$1,$6,$7*
1,1,$1+$1,$8,$9*
0 Add four rect primitives between the rounded corners*
20,1,$1+$1,$2,$3,$4,$5,0*
20,1,$1+$1,$4,$5,$6,$7,0*
20,1,$1+$1,$6,$7,$8,$9,0*
20,1,$1+$1,$8,$9,$2,$3,0*%
G04 Aperture macros list end*
%TA.AperFunction,ComponentPad*%
%ADD10C,1.524000*%
%TD*%
%TA.AperFunction,ComponentPad*%
%ADD11RoundRect,0.250000X0.600000X0.750000X-0.600000X0.750000X-0.600000X-0.750000X0.600000X-0.750000X0*%
%TD*%
%TA.AperFunction,ComponentPad*%
%ADD12O,1.700000X2.000000*%
%TD*%
%TA.AperFunction,ViaPad*%
%ADD13C,0.600000*%
%TD*%
%TA.AperFunction,Conductor*%
%ADD14C,0.400000*%
%TD*%
%TA.AperFunction,Conductor*%
%ADD15C,0.200000*%
%TD*%
G04 APERTURE END LIST*
D10*
%TO.P,R1,1*%
%TO.N,BAT*%
X116000000Y-93330000D03*
%TO.P,R1,2*%
%TO.N,Net-(R1-Pad2)*%
X116000000Y-85710000D03*
%TD*%
%TO.P,R2,1*%
%TO.N,Net-(R1-Pad2)*%
X112500000Y-85670000D03*
%TO.P,R2,2*%
%TO.N,/A0*%
X112500000Y-93290000D03*
%TD*%
%TO.P,ESP8266,1,TX*%
%TO.N,unconnected-(ESP8266-TX-Pad1)*%
X63840000Y-73500000D03*
%TO.P,ESP8266,2,RX*%
%TO.N,unconnected-(ESP8266-RX-Pad2)*%
X66380000Y-73500000D03*
%TO.P,ESP8266,3,D1*%
%TO.N,/BME_I2C_SCL*%
X68920000Y-73500000D03*
%TO.P,ESP8266,4,D2*%
%TO.N,/BME_I2C_SDA*%
X71460000Y-73500000D03*
%TO.P,ESP8266,5,D3*%
%TO.N,/DIS_BUSY*%
X74000000Y-73500000D03*
%TO.P,ESP8266,6,D4*%
%TO.N,/DIS_RST*%
X76540000Y-73500000D03*
%TO.P,ESP8266,7,GND*%
%TO.N,GND*%
X79080000Y-73500000D03*
%TO.P,ESP8266,8,VBUS*%
%TO.N,BAT*%
X81620000Y-73500000D03*
%TO.P,ESP8266,9,3V3*%
%TO.N,3V3*%
X81620000Y-96360000D03*
%TO.P,ESP8266,10,D8*%
%TO.N,/DIS_CS*%
X79080000Y-96360000D03*
%TO.P,ESP8266,11,D7*%
%TO.N,/DIS_SDA*%
X76540000Y-96360000D03*
%TO.P,ESP8266,12,D6*%
%TO.N,/DIS_DC*%
X74000000Y-96360000D03*
%TO.P,ESP8266,13,D5*%
%TO.N,/DIS_SCL*%
X71460000Y-96360000D03*
%TO.P,ESP8266,14,D0*%
%TO.N,/D0*%
X68920000Y-96360000D03*
%TO.P,ESP8266,15,A0*%
%TO.N,/A0*%
X66380000Y-96360000D03*
%TO.P,ESP8266,16,RST*%
%TO.N,/RST*%
X63840000Y-96360000D03*
%TD*%
%TO.P,BME280,1,VCC*%
%TO.N,3V3*%
X115800000Y-69420000D03*
%TO.P,BME280,2,GND*%
%TO.N,GND*%
X113260000Y-69420000D03*
%TO.P,BME280,3,SCL*%
%TO.N,/BME_I2C_SCL*%
X110720000Y-69420000D03*
%TO.P,BME280,4,SDA*%
%TO.N,/BME_I2C_SDA*%
X108180000Y-69420000D03*
%TO.P,BME280,5,CSB*%
%TO.N,unconnected-(BME280-CSB-Pad5)*%
X105640000Y-69420000D03*
%TO.P,BME280,6,SDO*%
%TO.N,unconnected-(BME280-SDO-Pad6)*%
X103220000Y-69420000D03*
%TD*%
D11*
%TO.P,-      +,1,+*%
%TO.N,BAT*%
X114000000Y-99500000D03*
D12*
%TO.P,-      +,2,-*%
%TO.N,GND*%
X111500000Y-99500000D03*
%TD*%
D10*
%TO.P,JP1,1,A*%
%TO.N,/D0*%
X67240000Y-100500000D03*
%TO.P,JP1,2,B*%
%TO.N,/RST*%
X64700000Y-100500000D03*
%TD*%
%TO.P,WeAct154EPD1,1,BUSY*%
%TO.N,/DIS_BUSY*%
X104140000Y-88740000D03*
%TO.P,WeAct154EPD1,2,RST*%
%TO.N,/DIS_RST*%
X101600000Y-88740000D03*
%TO.P,WeAct154EPD1,3,DC*%
%TO.N,/DIS_DC*%
X104140000Y-86200000D03*
%TO.P,WeAct154EPD1,4,CS*%
%TO.N,/DIS_CS*%
X101600000Y-86200000D03*
%TO.P,WeAct154EPD1,5,SCL*%
%TO.N,/DIS_SCL*%
X104140000Y-83660000D03*
%TO.P,WeAct154EPD1,6,SDA*%
%TO.N,/DIS_SDA*%
X101600000Y-83660000D03*
%TO.P,WeAct154EPD1,7,GND*%
%TO.N,GND*%
X104140000Y-81120000D03*
%TO.P,WeAct154EPD1,8,VCC*%
%TO.N,3V3*%
X101600000Y-81120000D03*
%TD*%
D13*
%TO.N,3V3*%
X103673400Y-77919400D03*
%TD*%
D14*
%TO.N,3V3*%
X107300600Y-77919400D02*
X115800000Y-69420000D01*
X103673400Y-77919400D02*
X107300600Y-77919400D01*
X101600000Y-81120000D02*
X86360000Y-96360000D01*
X86360000Y-96360000D02*
X81620000Y-96360000D01*
D15*
%TO.N,/BME_I2C_SCL*%
X71021400Y-71398600D02*
X68920000Y-73500000D01*
X108741400Y-71398600D02*
X71021400Y-71398600D01*
X110720000Y-69420000D02*
X108741400Y-71398600D01*
D14*
%TO.N,GND*%
X111500000Y-99500000D02*
X110248300Y-99500000D01*
X104140000Y-81120000D02*
X110248300Y-87228300D01*
X110248300Y-87228300D02*
X110248300Y-99500000D01*
%TO.N,BAT*%
X116000000Y-91323200D02*
X116000000Y-93330000D01*
X81620000Y-73500000D02*
X98176800Y-73500000D01*
X116000000Y-97500000D02*
X116000000Y-93330000D01*
X98176800Y-73500000D02*
X116000000Y-91323200D01*
X114000000Y-99500000D02*
X116000000Y-97500000D01*
D15*
%TO.N,/DIS_SDA*%
X87819600Y-97440400D02*
X77620400Y-97440400D01*
X101600000Y-83660000D02*
X87819600Y-97440400D01*
X77620400Y-97440400D02*
X76540000Y-96360000D01*
%TO.N,/DIS_RST*%
X102676600Y-80647900D02*
X99076400Y-77047700D01*
X101600000Y-88740000D02*
X102676600Y-87663400D01*
X80087700Y-77047700D02*
X76540000Y-73500000D01*
X102676600Y-87663400D02*
X102676600Y-80647900D01*
X99076400Y-77047700D02*
X80087700Y-77047700D01*
%TO.N,/D0*%
X67240000Y-98040000D02*
X68920000Y-96360000D01*
X67240000Y-100500000D02*
X67240000Y-98040000D01*
%TO.N,/RST*%
X64700000Y-100500000D02*
X63840000Y-99640000D01*
X63840000Y-99640000D02*
X63840000Y-96360000D01*
%TD*%
M02*
